<?xml version="1.0" encoding="utf-8"?>
<!-- Generator: Adobe Illustrator 15.1.0, SVG Export Plug-In . SVG Version: 6.00 Build 0)  -->
<!DOCTYPE svg PUBLIC "-//W3C//DTD SVG 1.1//EN" "http://www.w3.org/Graphics/SVG/1.1/DTD/svg11.dtd">
<svg version="1.1" id="Layer_1" xmlns="http://www.w3.org/2000/svg" xmlns:xlink="http://www.w3.org/1999/xlink" x="0px" y="0px"
	 width="625.588px" height="145.432px" viewBox="0 0 625.588 145.432" enable-background="new 0 0 625.588 145.432"
	 xml:space="preserve">
<g>
	<g>
		<path fill="#00818B" d="M119.402,135.016c0,1.416,1.292,3.25,4.667,3.25s5.792-1.208,5.792-1.208l0.708,1.957
			c-3.708,1.459-5.542,1.668-9,1.083c-3.122-0.528-4.229-3.123-4.229-5.5c0-1.584,0-4.25,0-6.229c0-3.104,3.021-5.27,5.938-5.27
			c1.75,0-1.292,0,2,0c3.75,0,5.417,3.415,5.417,4.832s0,4.25,0,4.25h-11.292C119.402,132.182,119.402,133.6,119.402,135.016z
			 M128.568,130.391c0,0,0-0.666,0-1.208s0.125-4.292-4.625-4.292s-4.5,3.834-4.5,4.334s0,1.166,0,1.166H128.568z"/>
		<path fill="#00818B" d="M193.661,135.016c0,1.416,1.292,3.25,4.667,3.25s5.792-1.208,5.792-1.208l0.708,1.957
			c-3.708,1.459-5.542,1.668-9,1.083c-3.122-0.528-4.229-3.123-4.229-5.5c0-1.584,0-4.25,0-6.229c0-3.104,3.021-5.27,5.938-5.27
			c1.75,0-1.292,0,2,0c3.75,0,5.417,3.415,5.417,4.832s0,4.25,0,4.25h-11.292C193.661,132.182,193.661,133.6,193.661,135.016z
			 M202.828,130.391c0,0,0-0.666,0-1.208s0.125-4.292-4.625-4.292s-4.5,3.834-4.5,4.334s0,1.166,0,1.166H202.828z"/>
		<path fill="#00818B" d="M158.235,125.849c-0.686-0.541-2.896-0.958-4.417-0.958c-4.417,0-4.5,3.834-4.5,4.334s0,1.166,0,1.166
			l-0.042,1.791c0,0,0,1.418,0,2.834s1.292,3.25,4.667,3.25s4.709-0.999,4.709-0.999l0.708,1.957
			c-3.625,1.25-4.458,1.459-7.917,0.874c-3.122-0.528-4.229-3.123-4.229-5.5c0-1.584,0-4.25,0-6.229
			c0-3.104,3.107-5.235,6.021-5.354c2.042-0.083,4.208,0,6.042,1L158.235,125.849z"/>
		<path fill="#00818B" d="M142.485,122.891c-1.616,0-3.019,1.088-3.917,2.005v-2.005h-2.417v17.084h2.417v-12.996
			c0.77-0.922,1.903-1.53,2.583-1.796c0.958-0.375,2.833,0.125,2.833,0.125v-2.417C143.985,122.891,143.36,122.891,142.485,122.891z
			"/>
		<path fill="#00818B" d="M295.152,122.891c-1.616,0-3.019,1.088-3.917,2.005v-2.005h-2.417v17.084h2.417v-12.996
			c0.77-0.922,1.903-1.53,2.583-1.796c0.958-0.375,2.833,0.125,2.833,0.125v-2.417C296.652,122.891,296.027,122.891,295.152,122.891
			z"/>
		<path fill="#00818B" d="M174.277,123.058v13.342c-1.26,0.879-3.203,1.866-5.583,1.866c-2.667,0-2.583-1.875-2.583-2.375
			c0-0.833,0-12.875,0-12.875h-2.625c0,0,0,11.209,0,13.042s1.417,4.125,5.125,4.125c2.175,0,4.287-1.146,5.667-2.094v1.76h2.458
			v-16.791H174.277z"/>
		<rect x="182.985" y="115.891" fill="#00818B" width="2.5" height="24.083"/>
		<path fill="#00818B" d="M221.235,123.849l-0.917,2.084c0,0-1.542-1.25-5.25-1.209c-2.5,0.027-2.958,1.418-2.958,2.334
			s-0.415,3.458,3.25,3.458c7.625,0,6.375,5.667,6.083,6.458c-0.23,0.626-1.375,3.334-5.708,3.334s-6.667-1.792-6.667-1.792
			l1.208-2.042c0,0,2.125,2,5.625,2s3.542-3.083,3.542-3.083s0.621-3.196-3.833-3c-3.792,0.167-5.792-1.583-5.792-4
			s-0.083-5.575,5.25-5.625C219.527,122.724,221.235,123.849,221.235,123.849z"/>
		<path fill="#00818B" d="M242.027,118.141c-2.25,0-8.917,0-8.917,0l-0.167,22h2.875v-6.917c1.172,0,3.495,0,6.208,0
			c4.25,0,5.292-3.458,5.292-6.083c0-1.042,0-1.625,0-4.792C247.318,119.349,244.277,118.141,242.027,118.141z M244.86,128.266
			c0,1.5-1,2.917-3.125,2.917c-1.669,0-4.693,0-5.917,0v-11.125c0,0,3.667,0,6.208,0s2.833,2.25,2.833,3.041
			S244.86,126.766,244.86,128.266z"/>
		<path fill="#00818B" d="M249.318,127.974"/>
		<path fill="#00818B" d="M254.194,140.016v-13.342c1.26-0.879,3.203-1.866,5.583-1.866c2.667,0,2.583,1.875,2.583,2.375
			c0,0.833,0,12.875,0,12.875h2.625c0,0,0-11.209,0-13.042s-1.417-4.125-5.125-4.125c-2.175,0-4.287,1.146-5.667,2.094v-9.428
			h-2.458v24.459H254.194z"/>
		<path fill="#00818B" d="M277.006,122.557c6.188,0,6.5,3.5,6.5,5.625s0,11.875,0,11.875h-2.313v-1.938c0,0-3.813,2.25-6.625,2.25
			s-4.938-1.563-4.938-5.688s2.75-5.313,5-5.313s6.313,1.25,6.313,1.25s0,0,0-2.75s-2.25-3.063-4.5-3.063s-4.75,1.313-4.75,1.313
			l-1.125-2.313C270.568,123.807,271.568,122.557,277.006,122.557z M275.943,131.369c-4.625,0-3.938,3.625-3.938,3.625
			s-0.25,3.375,2.875,3.375c3.375,0,6-1.938,6-1.938v-3.75C280.881,132.682,278.443,131.369,275.943,131.369z"/>
		<path fill="#00818B" d="M335.59,122.245c6.188,0,6.5,3.5,6.5,5.625s0,11.875,0,11.875h-2.313v-1.938c0,0-3.813,2.25-6.625,2.25
			s-4.938-1.563-4.938-5.688s2.75-5.313,5-5.313s6.313,1.25,6.313,1.25s0,0,0-2.75s-2.25-3.063-4.5-3.063s-4.75,1.313-4.75,1.313
			l-1.125-2.313C329.152,123.495,330.153,122.245,335.59,122.245z M334.528,131.058c-4.625,0-3.938,3.625-3.938,3.625
			s-0.25,3.375,2.875,3.375c3.375,0,6-1.938,6-1.938v-3.75C339.465,132.37,337.028,131.058,334.528,131.058z"/>
		<path fill="#00818B" d="M444.588,122.245c6.188,0,6.5,3.5,6.5,5.625s0,11.875,0,11.875h-2.313v-1.938c0,0-3.813,2.25-6.625,2.25
			s-4.938-1.563-4.938-5.688s2.75-5.313,5-5.313s6.313,1.25,6.313,1.25s0,0,0-2.75s-2.25-3.063-4.5-3.063s-4.75,1.313-4.75,1.313
			l-1.125-2.313C438.151,123.495,439.151,122.245,444.588,122.245z M443.526,131.058c-4.625,0-3.938,3.625-3.938,3.625
			s-0.25,3.375,2.875,3.375c3.375,0,6-1.938,6-1.938v-3.75C448.463,132.37,446.026,131.058,443.526,131.058z"/>
		<path fill="#00818B" d="M408.821,137.416c-0.857,0.59-1.838,1.069-2.916,1.069c-2.465,0-2.389-1.875-2.389-2.375
			c0-0.487,0-6.208,0-10.866h4.865v-1.875h-4.865c0-2.405,0-4.188,0-4.188h-2.428c0,0,0,1.775,0,4.188h-2.082v1.875h2.082
			c0,4.481,0,9.979,0,11.033c0,1.833,1.311,4.125,4.738,4.125c1.385,0,2.736-0.545,3.863-1.193L408.821,137.416z"/>
		<polygon fill="#00818B" points="109.264,118.237 109.264,128.143 98.827,128.143 98.827,118.237 96.367,118.237 96.367,139.91 
			98.827,139.91 98.827,130.271 109.264,130.271 109.264,139.91 111.724,139.91 111.724,118.237 		"/>
		<path fill="#00818B" d="M318.34,122.891c-2.008,0-4.192,1.281-5.548,2.223c-0.665-1.212-2.028-2.223-4.365-2.223
			c-2.068,0-4.077,1.146-5.388,2.094v-1.76h-2.337v16.791h2.337v-13.342c1.197-0.879,3.045-1.866,5.309-1.866
			c2.535,0,2.456,1.875,2.456,2.375c0,0.833,0,12.875,0,12.875h2.496c0,0,0-11.209,0-13.042c0-0.197-0.023-0.4-0.056-0.604
			c1.214-0.802,2.94-1.604,5.016-1.604c2.578,0,2.498,1.875,2.498,2.375c0,0.833,0,12.875,0,12.875h2.539c0,0,0-11.209,0-13.042
			S321.928,122.891,318.34,122.891z"/>
		<path fill="#00818B" d="M365.569,134.672c0,1.416,1.291,3.25,4.666,3.25s5.793-1.208,5.793-1.208l0.707,1.957
			c-3.709,1.459-5.541,1.668-9,1.083c-3.121-0.528-4.229-3.123-4.229-5.5c0-1.584,0-4.25,0-6.229c0-3.104,3.021-5.27,5.938-5.27
			c1.75,0-1.291,0,2,0c3.75,0,5.416,3.415,5.416,4.832s0,4.25,0,4.25h-11.291C365.569,131.838,365.569,133.256,365.569,134.672z
			 M374.735,130.047c0,0,0-0.666,0-1.208s0.125-4.292-4.625-4.292s-4.5,3.834-4.5,4.334s0,1.166,0,1.166H374.735z"/>
		<path fill="#00818B" d="M358.444,125.497c-0.686-0.541-2.896-0.958-4.418-0.958c-4.416,0-4.5,3.834-4.5,4.334s0,1.166,0,1.166
			l-0.041,1.791c0,0,0,1.418,0,2.834s1.291,3.25,4.666,3.25s4.709-0.999,4.709-0.999l0.709,1.957
			c-3.625,1.25-4.459,1.459-7.918,0.874c-3.121-0.528-4.229-3.123-4.229-5.5c0-1.584,0-4.25,0-6.229
			c0-3.104,3.107-5.235,6.021-5.354c2.041-0.083,4.207,0,6.041,1L358.444,125.497z"/>
		<path fill="#00818B" d="M533.11,125.497c-0.686-0.541-2.896-0.958-4.418-0.958c-4.416,0-4.5,3.834-4.5,4.334s0,1.166,0,1.166
			l-0.041,1.791c0,0,0,1.418,0,2.834s1.291,3.25,4.666,3.25s4.709-0.999,4.709-0.999l0.709,1.957
			c-3.625,1.25-4.459,1.459-7.918,0.874c-3.121-0.528-4.229-3.123-4.229-5.5c0-1.584,0-4.25,0-6.229
			c0-3.104,3.107-5.235,6.021-5.354c2.041-0.083,4.207,0,6.041,1L533.11,125.497z"/>
		<path fill="#00818B" d="M432.11,125.497c-0.686-0.541-2.896-0.958-4.418-0.958c-4.416,0-4.5,3.834-4.5,4.334s0,1.166,0,1.166
			l-0.041,1.791c0,0,0,1.418,0,2.834s1.291,3.25,4.666,3.25s4.709-0.999,4.709-0.999l0.709,1.957
			c-3.625,1.25-4.459,1.459-7.918,0.874c-3.121-0.528-4.229-3.123-4.229-5.5c0-1.584,0-4.25,0-6.229
			c0-3.104,3.107-5.235,6.021-5.354c2.041-0.083,4.207,0,6.041,1L432.11,125.497z"/>
		<path fill="#00818B" d="M393.11,122.933v13.342c-1.26,0.879-3.203,1.866-5.584,1.866c-2.666,0-2.582-1.875-2.582-2.375
			c0-0.833,0-12.875,0-12.875h-2.625c0,0,0,11.209,0,13.042s1.416,4.125,5.125,4.125c2.174,0,4.287-1.146,5.666-2.094v1.76h2.459
			v-16.791H393.11z"/>
		<path fill="#00818B" d="M506.276,140.016v-13.342c1.26-0.879,3.203-1.866,5.584-1.866c2.666,0,2.584,1.875,2.584,2.375
			c0,0.833,0,12.875,0,12.875h2.625c0,0,0-11.209,0-13.042s-1.418-4.125-5.125-4.125c-2.176,0-4.287,1.146-5.668,2.094v-1.76h-2.457
			v16.791H506.276z"/>
		<path fill="#00818B" d="M476.735,123.943l-0.916,2.084c0,0-1.541-1.25-5.25-1.209c-2.5,0.027-2.959,1.418-2.959,2.334
			s-0.414,3.458,3.25,3.458c7.625,0,6.375,5.667,6.084,6.458c-0.23,0.626-1.375,3.334-5.709,3.334c-4.332,0-6.666-1.792-6.666-1.792
			l1.209-2.042c0,0,2.125,2,5.625,2s3.541-3.083,3.541-3.083s0.621-3.196-3.834-3c-3.791,0.167-5.791-1.583-5.791-4
			s-0.084-5.575,5.25-5.625C475.028,122.818,476.735,123.943,476.735,123.943z"/>
		<rect x="456.985" y="115.975" fill="#00818B" width="2.5" height="24.083"/>
		<rect x="495.485" y="117.975" fill="#00818B" width="2.5" height="22.083"/>
		<path fill="#00818B" d="M415.694,140.058h-2.5v-17.083h2.5V140.058z M416.09,116.809c0-0.646-0.525-1.173-1.174-1.173h-0.947
			c-0.648,0-1.172,0.526-1.172,1.173v1.201c0,0.648,0.523,1.173,1.172,1.173h0.947c0.648,0,1.174-0.524,1.174-1.173V116.809z"/>
		<path fill="#00818B" d="M541.313,139.259c0,0.648-0.523,1.173-1.172,1.173h-0.947c-0.648,0-1.174-0.524-1.174-1.173v-1.201
			c0-0.646,0.525-1.173,1.174-1.173h0.947c0.648,0,1.172,0.526,1.172,1.173V139.259z"/>
		<polygon fill="#00818B" points="481.194,136.432 483.694,136.432 481.694,145.182 479.944,145.432 		"/>
	</g>
	<g>
		<g>
			<path fill="#42C0C6" d="M14.694,68.782c3.942-0.65,7.191-3.313,8.669-6.899c0.195-0.504,0.37-1.019,0.496-1.545
				c1.928-5.219,5.44-9.664,9.961-12.75c-0.102-0.61-0.168-1.223-0.168-1.859c0-4.036,2.115-7.581,5.278-9.597
				c1.322-0.849,4.439-1.751,8.724-0.806c-3.962-1.563-8.287-2.436-12.807-2.436C27.13,32.89,20,35.398,14.23,39.65
				c-2.626,4.104-4.144,8.978-4.144,14.206C10.086,59.392,11.785,64.527,14.694,68.782z"/>
			<path fill="#00818B" d="M22.047,100.16c4.285,0.953,7.394,0.046,8.723-0.801c3.164-2.018,5.266-5.564,5.266-9.599
				c0-0.635-0.054-1.25-0.155-1.856c-0.637-3.939-3.311-7.193-6.896-8.668c-0.504-0.202-1.014-0.378-1.545-0.511
				c-5.218-1.916-9.663-5.432-12.746-9.944c-2.909-4.255-4.608-9.39-4.608-14.926c0-5.228,1.518-10.102,4.144-14.206
				c-5.245,3.856-9.369,9.144-11.793,15.289C0.865,58.906,0,63.22,0,67.743C0,82.472,9.14,95.057,22.047,100.16z"/>
			<path fill="#083333" d="M47.654,35.326c-4.285-0.946-7.401-0.043-8.724,0.806c-3.163,2.016-5.278,5.561-5.278,9.597
				c0,0.636,0.066,1.249,0.168,1.859c0.644,3.936,3.304,7.195,6.903,8.663c0.489,0.205,1.008,0.38,1.539,0.512
				c5.217,1.914,9.663,5.431,12.746,9.947c2.907,4.25,4.613,9.39,4.613,14.925c0,5.231-1.531,10.1-4.143,14.201
				c5.238-3.853,9.361-9.142,11.786-15.283c1.564-3.97,2.445-8.286,2.445-12.809C69.709,53.02,60.568,40.432,47.654,35.326z"/>
			<path fill="#42C0C6" d="M67.265,80.552c-0.04,0.109-0.088,0.208-0.128,0.315c0.04-0.107,0.088-0.206,0.128-0.313V80.552z
				 M34.847,102.599c7.729,0,14.862-2.514,20.631-6.766c2.612-4.104,4.143-8.97,4.143-14.199c0-5.535-1.706-10.673-4.613-14.925
				c-3.937,0.648-7.192,3.314-8.664,6.901c-0.2,0.501-0.375,1.018-0.51,1.549c-1.92,5.212-5.433,9.658-9.953,12.745
				c0.101,0.606,0.155,1.222,0.155,1.856c0,4.034-2.102,7.581-5.266,9.599c-1.329,0.847-4.438,1.754-8.723,0.801
				C26.003,101.729,30.328,102.599,34.847,102.599z"/>
		</g>
		<path fill="#00818B" d="M620.409,104.604c-0.342-0.676-0.447-1.282-1.006-1.82c-0.547-0.533-1.1-0.972-1.783-1.309
			c-0.686-0.341-1.307-0.5-1.939-0.5c-0.785,0-1.527,0.319-2.268,0.968c-0.734,0.66-1.25,1.693-1.57,3.135
			c-0.363,1.522-0.818,3.183-1.367,4.979c-0.549,1.789-1.238,3.466-2.045,5.011c-0.814,1.556-1.811,2.842-2.986,3.868
			c-1.184,1.034-2.59,1.552-4.223,1.552c-1.516,0-2.941-0.412-4.248-1.243c-1.309-0.835-2.619-2.018-3.93-3.567
			c-1.316-1.546-2.641-3.442-3.98-5.691c-1.338-2.241-2.768-4.755-4.285-7.53l18.182-22.212c0.471-0.449,0.707-1.12,0.707-2.016
			c0-0.811-0.191-1.63-0.59-2.464c-0.391-0.825-0.922-1.6-1.568-2.322c-0.668-0.713-1.389-1.301-2.211-1.747
			c-0.813-0.451-1.611-0.67-2.4-0.67c-0.893,0-1.689,0.307-2.404,0.94c-0.709,0.632-1.428,1.551-2.162,2.76
			c-1.365,2.242-3.107,4.935-5.232,8.078c-2.131,3.141-4.582,6.529-7.367,10.158c-0.334-0.628-0.654-1.184-0.99-1.788
			c-0.158-0.345-0.303-0.708-0.473-1.05c-1.055-2.141-2.332-4.134-3.838-5.997c-1.504-1.86-3.396-3.442-5.689-4.739
			c3.641-1.661,7.037-3.818,10.201-6.461c3.162-2.65,5.934-5.672,8.313-9.089c2.373-3.408,4.246-7.175,5.617-11.302
			c1.369-4.125,2.053-8.546,2.053-13.258c0-4.889-0.813-9.403-2.426-13.535c-1.613-4.123-3.896-7.68-6.861-10.661
			c-2.963-2.987-6.506-5.307-10.629-6.965c-4.135-1.66-8.709-2.49-13.736-2.49c-6.145,0-11.729,1.022-16.758,3.064
			c-5.023,2.04-9.34,4.931-12.955,8.678c-3.611,3.744-6.4,8.232-8.377,13.459c-1.977,5.23-2.961,11.032-2.961,17.395
			c0,4.042,0.424,7.599,1.281,10.67c0.842,3.077,1.824,5.7,2.922,7.873c1.1,2.179,2.211,3.917,3.336,5.217
			c1.121,1.296,1.953,2.2,2.49,2.694c0.986,0.757,1.945,0.857,2.893,0.301c0.943-0.56,1.77-1.39,2.488-2.488
			c0.721-1.107,1.287-2.283,1.717-3.542c0.426-1.254,0.646-2.191,0.646-2.821c0-0.67-0.162-1.207-0.475-1.62
			c-0.32-0.398-0.859-0.487-1.617-0.267c-0.096-0.083-0.4-0.449-0.939-1.073c-0.543-0.628-1.121-1.607-1.75-2.931
			c-0.637-1.322-1.203-3.024-1.721-5.112c-0.516-2.091-0.773-4.655-0.773-7.703c0-4.039,0.607-7.947,1.818-11.713
			c1.213-3.769,3.074-7.119,5.586-10.059c2.51-2.938,5.695-5.283,9.555-7.031c3.854-1.75,8.434-2.626,13.727-2.626
			c4.045,0,7.51,0.74,10.404,2.219c2.895,1.481,5.264,3.362,7.1,5.652c1.844,2.287,3.199,4.829,4.076,7.608
			c0.873,2.783,1.314,5.473,1.314,8.076c0,3.904-0.453,7.414-1.369,10.533c-0.922,3.119-2.113,5.902-3.621,8.375
			c-1.506,2.465-3.191,4.625-5.141,6.464c-1.959,1.837-3.898,3.392-5.984,4.671s-4.027,2.303-6.117,3.067
			c-2.086,0.764-4.17,1.304-5.471,1.612V29.245c0-1.706-1-3.156-2.422-4.335c-1.404-1.194-3.553-1.792-5.844-1.792
			c-0.988,0-1.863,0.228-2.582,0.674c-0.719,0.455-1.123,1.016-1.123,1.682c0,0.496,0.012,1.032,0.217,1.62
			c0.197,0.583,0.109,1.525,0.109,2.825v72.076c0,0.538,0.42,1.043,0.846,1.514c0.422,0.471,1.17,0.881,1.816,1.25
			c0.646,0.358,1.418,0.644,2.227,0.875c0.809,0.219,1.686,0.329,2.49,0.329c1.033,0,2.072-0.231,2.84-0.704
			c0.756-0.469,1.426-1.285,1.426-2.458V83.691c2.598,0.857,5.344,2.084,7.188,3.699c1.834,1.621,3.039,3.497,4.189,5.653
			c1.143,2.154,2.07,4.512,2.787,7.073c0.27,0.951,0.598,1.979,0.885,2.959c-2.102,2.557-4.26,5.097-6.516,7.586
			c-2.434,2.695-4.922,5.295-7.438,7.807c-1.309,1.255-2.402,2.197-3.273,2.827c-0.863,0.632-1.57,1.099-2.121,1.406
			c-0.553,0.324-0.945,0.596-1.182,0.815c-0.232,0.219-0.357,0.56-0.357,1.011c0,0.674,0.262,1.274,0.789,1.813
			c0.529,0.539,1.195,1.012,2.008,1.413c0.816,0.401,1.711,0.72,2.678,0.94c0.973,0.225,1.93,0.34,2.875,0.34
			c1.471,0,2.766-0.302,3.898-0.911c1.129-0.609,2.246-1.666,3.346-3.193l10.861-13.124c1.732,3.14,3.426,5.813,5.082,8.004
			c1.645,2.205,3.365,3.983,5.156,5.354c1.779,1.37,3.666,2.35,5.66,2.959c1.996,0.609,4.193,0.911,6.607,0.911
			c3.254,0,6.066-0.697,8.449-2.084c2.387-1.389,4.406-3.139,6.117-5.255c1.703-2.111,3.053-4.411,4.16-6.927
			c1.1-2.514,1.635-4.915,2.318-7.209C620.87,107.293,620.743,105.28,620.409,104.604z"/>
		<g>
			<path fill="#083333" d="M156.147,103.252h-18.05V60.718h-23.819v42.534H96.229V6.24h18.049v38.551h23.819V6.24h18.05V103.252z"/>
			<path fill="#083333" d="M195.106,104.578c-9.245,0-16.535-3.283-21.864-9.853c-5.33-6.572-7.995-15.867-7.995-27.902
				c0-12.21,2.411-21.743,7.232-28.601c4.821-6.856,11.544-10.285,20.174-10.285c8.049,0,14.398,2.933,19.042,8.791
				c4.644,5.862,6.967,14.08,6.967,24.653v9.421h-35.498c0.13,6.593,1.477,11.491,4.045,14.7c2.565,3.208,6.104,4.814,10.615,4.814
				c5.753,0,11.638-1.794,17.655-5.379V99.47C209.812,102.879,203.022,104.578,195.106,104.578z M192.518,41.542
				c-2.52,0-4.6,1.335-6.238,4.012c-1.639,2.679-2.585,6.824-2.854,12.444h17.918c-0.089-5.397-0.908-9.489-2.455-12.275
				C197.342,42.936,195.216,41.542,192.518,41.542z"/>
			<path fill="#083333" d="M258.461,27.938c2.169,0,4.291,0.332,6.373,0.993l-2.059,17.126c-1.239-0.446-2.849-0.668-4.844-0.668
				c-4.292,0-7.586,1.693-9.887,5.079c-2.299,3.384-3.452,8.304-3.452,14.765v38.021h-17.648v-73.92h14.532l1.987,11.544h0.599
				c1.946-4.645,4.068-7.96,6.373-9.952C252.732,28.931,255.411,27.938,258.461,27.938z"/>
			<path fill="#083333" d="M293.752,104.578c-8.804,0-15.505-3.206-20.106-9.62c-4.6-6.412-6.897-15.835-6.897-28.271
				c0-13.004,2.177-22.712,6.534-29.13c4.359-6.414,11.091-9.62,20.205-9.62c2.743,0,5.617,0.397,8.626,1.192
				c3.008,0.8,5.709,1.949,8.097,3.454l-5.045,13.736c-3.669-2.169-6.924-3.254-9.754-3.254c-3.762,0-6.468,1.957-8.126,5.873
				c-1.658,3.916-2.491,9.788-2.491,17.619c0,7.651,0.818,13.373,2.456,17.149c1.637,3.788,4.312,5.676,8.03,5.676
				c4.421,0,9.045-1.547,13.868-4.642v15.526C304.505,103.142,299.37,104.578,293.752,104.578z"/>
			<path fill="#083333" d="M356.315,103.252l-2.193-9.49h-0.928c-1.637,3.36-3.969,6.011-7,7.934
				c-3.031,1.925-6.494,2.883-10.385,2.883c-6.638,0-11.656-2.256-15.061-6.764c-3.41-4.514-5.111-11.259-5.111-20.244V29.332h17.85
				v43.995c0,5.394,0.641,9.467,1.926,12.21c1.279,2.744,3.357,4.113,6.234,4.113c3.803,0,6.582-1.901,8.328-5.709
				c1.748-3.803,2.623-10.196,2.623-19.177V29.332h17.846v73.92H356.315z"/>
			<path fill="#083333" d="M399.497,103.252h-17.645V0h17.645V103.252z"/>
			<path fill="#083333" d="M438.17,104.578c-9.242,0-16.531-3.283-21.861-9.853c-5.33-6.572-7.998-15.867-7.998-27.902
				c0-12.21,2.41-21.743,7.23-28.601c4.826-6.856,11.549-10.285,20.176-10.285c8.051,0,14.4,2.933,19.045,8.791
				c4.641,5.862,6.965,14.08,6.965,24.653v9.421h-35.498c0.131,6.593,1.479,11.491,4.049,14.7c2.564,3.208,6.105,4.814,10.613,4.814
				c5.75,0,11.637-1.794,17.652-5.379V99.47C452.879,102.879,446.088,104.578,438.17,104.578z M435.583,41.542
				c-2.521,0-4.6,1.335-6.238,4.012c-1.637,2.679-2.588,6.824-2.852,12.444h17.914c-0.084-5.397-0.906-9.489-2.451-12.275
				C440.405,42.936,438.284,41.542,435.583,41.542z"/>
			<path fill="#083333" d="M509.69,81.62c0,7.212-2.115,12.841-6.34,16.888c-4.223,4.052-10.449,6.07-18.676,6.07
				c-7.301,0-13.336-1.437-18.115-4.311V84.938c2.432,1.684,5.271,3.073,8.525,4.179c3.252,1.104,6.119,1.66,8.596,1.66
				c2.742,0,4.83-0.677,6.27-2.022c1.439-1.354,2.154-3.131,2.154-5.345c0-2.256-0.75-4.223-2.256-5.904
				c-1.504-1.682-4.266-3.739-8.295-6.169c-5.35-3.189-9.189-6.583-11.512-10.189c-2.322-3.603-3.482-7.862-3.482-12.772
				c0-6.282,2.156-11.257,6.473-14.931c4.309-3.667,10.225-5.507,17.744-5.507c6.549,0,12.723,1.726,18.518,5.175l-5.777,12.676
				c-4.73-2.565-8.891-3.852-12.475-3.852c-2.254,0-3.947,0.599-5.076,1.793c-1.127,1.195-1.686,2.654-1.686,4.379
				c0,1.991,0.691,3.761,2.088,5.307c1.391,1.551,3.986,3.477,7.797,5.774c4.604,2.787,7.828,5.153,9.686,7.101
				c1.859,1.948,3.295,4.156,4.318,6.635C509.178,75.406,509.69,78.304,509.69,81.62z"/>
		</g>
	</g>
</g>
<g>
	<path fill="#083333" d="M607.885,15.699V5.62h-3.766V4.271h9.059V5.62h-3.781v10.08H607.885z"/>
	<path fill="#083333" d="M614.682,15.699V4.271h2.277l2.705,8.091c0.249,0.754,0.431,1.317,0.546,1.692
		c0.13-0.416,0.331-1.026,0.606-1.832l2.736-7.951h2.035v11.428h-1.458V6.134l-3.321,9.565h-1.363L616.14,5.97v9.729H614.682z"/>
</g>
</svg>
