<?xml version="1.0" encoding="utf-8"?>
<!-- Generator: Adobe Illustrator 15.1.0, SVG Export Plug-In . SVG Version: 6.00 Build 0)  -->
<!DOCTYPE svg PUBLIC "-//W3C//DTD SVG 1.1//EN" "http://www.w3.org/Graphics/SVG/1.1/DTD/svg11.dtd">
<svg version="1.1" xmlns="http://www.w3.org/2000/svg" xmlns:xlink="http://www.w3.org/1999/xlink" x="0px" y="0px"
	 width="2457.391px" height="991.281px" viewBox="0 0 2457.391 991.281" enable-background="new 0 0 2457.391 991.281"
	 xml:space="preserve">
<g id="Layer_1">
</g>
<g id="Layer_4">
</g>
<g id="Layer_3">
	<g>
		<g>
			<path fill="#1681C4" d="M140.758,622.335h6.59v15.178H0v-15.178h6.589c35.339,0,50.313-14.516,50.313-50.811V255.429
				c0-32.996-6.589-36.954-52.109-42.893v-15.178h98.229L401.91,547.107V264.008c0-36.294-14.974-51.472-50.313-51.472h-6.589
				v-15.178h147.348v15.178h-6.588c-35.34,0-50.314,15.178-50.314,51.472v379.442h-17.969L90.444,262.688v308.837
				C90.444,607.82,105.419,622.335,140.758,622.335z"/>
		</g>
		<g>
			<path fill="#1681C4" d="M757.515,204.617c-45.367,0-90.731,21.117-119.384,52.131c-31.041,34.316-49.545,85.129-49.545,141.222
				c0,137.919,75.809,230.304,178.479,230.304c63.871,0,116.398-34.316,154.004-102.286l14.328,1.983l-39.994,101.624h-7.76
				c-40.59,0-80.584,18.477-126.547,18.477c-65.662,0-119.384-18.477-161.167-56.75c-45.964-41.575-70.438-100.308-70.438-165.638
				c0-49.493,14.924-98.325,43.576-140.559c41.783-61.373,107.445-97.006,178.479-97.006c37.011,0,77.003,9.899,124.159,23.097
				c8.954,1.979,16.716,4.62,25.073,4.62c4.175,0,8.354-0.66,13.129-1.98l5.971,103.605l-16.717,0.662
				C872.125,243.549,821.982,204.617,757.515,204.617z"/>
		</g>
		<g>
			<path fill="#1681C4" d="M1314.579,622.998c51.159-0.662,58.364-17.16,74.218-55.433l138.346-337.872
				c5.044-11.218,7.925-20.458,7.925-27.057c0-3.96-1.44-9.238-4.323-14.518h67.014l152.036,376.148
				c16.57,39.592,26.658,58.73,64.849,58.73h7.926v14.516h-208.961l0.72-14.516h27.384c35.305,0,51.881-5.94,51.881-24.42
				c0-3.956-2.165-13.193-7.208-26.393l-51.879-128.683h-157.082l-53.318,128.683c-4.323,11.215-6.487,19.794-6.487,25.075
				c0,18.479,15.133,25.737,47.557,25.737h25.22v14.516h-175.814V622.998z M1622.976,417.104l-67.011-164.975l-67.733,164.975
				H1622.976z"/>
		</g>
		<g>
			<path fill="#1681C4" d="M1188.892,622.335h8.004v15.178H990.953v-15.178h8.002c42.938,0,61.129-14.516,61.129-50.811V264.008
				c0-36.294-18.191-51.472-61.129-51.472h-8.002v-15.178c85.868-0.662,146.996-1.32,182.656-1.32
				c136.082,0,204.486,43.554,204.486,128.68c0,79.187-65.494,130.663-184.84,130.663c-18.918,0-40.752-1.32-65.495-3.962v120.105
				C1127.761,607.82,1145.955,622.335,1188.892,622.335z M1175.791,438.885c80.05,0,129.533-47.517,129.533-122.083
				c0-67.97-45.119-106.245-128.077-106.245c-12.373,0-29.108,1.319-49.486,3.298v219.749
				C1144.499,436.901,1160.511,438.885,1175.791,438.885z"/>
		</g>
		<g>
			<path fill="#5BA6D5" d="M1696.329,185.268c8.282,0,16.369,2.126,24.262,6.377c7.89,4.249,14.035,10.333,18.439,18.245
				c4.406,7.913,6.606,16.164,6.606,24.751c0,8.502-2.168,16.677-6.507,24.522c-4.342,7.848-10.421,13.942-18.245,18.28
				c-7.825,4.339-16.012,6.506-24.556,6.506c-8.547,0-16.73-2.167-24.556-6.506c-7.828-4.338-13.92-10.432-18.277-18.28
				c-4.361-7.846-6.543-16.021-6.543-24.522c0-8.587,2.214-16.838,6.642-24.751c4.424-7.912,10.581-13.996,18.472-18.245
				C1679.956,187.394,1688.047,185.268,1696.329,185.268z M1696.329,193.442c-6.933,0-13.679,1.778-20.239,5.328
				c-6.564,3.555-11.695,8.634-15.401,15.24c-3.704,6.603-5.559,13.481-5.559,20.631c0,7.108,1.821,13.92,5.459,20.437
				c3.641,6.518,8.731,11.597,15.269,15.237c6.541,3.64,13.365,5.461,20.472,5.461s13.927-1.821,20.468-5.461
				c6.539-3.64,11.616-8.719,15.236-15.237c3.619-6.516,5.43-13.328,5.43-20.437c0-7.149-1.843-14.028-5.527-20.631
				c-3.684-6.606-8.818-11.685-15.4-15.24C1709.952,195.22,1703.217,193.442,1696.329,193.442z M1674.683,261.911v-53.099h18.245
				c6.235,0,10.748,0.488,13.535,1.471c2.793,0.98,5.016,2.691,6.673,5.134c1.655,2.441,2.485,5.033,2.485,7.782
				c0,3.88-1.388,7.257-4.154,10.136c-2.77,2.879-6.443,4.49-11.019,4.838c1.875,0.786,3.38,1.723,4.514,2.81
				c2.134,2.094,4.751,5.604,7.847,10.529l6.474,10.399h-10.464l-4.71-8.371c-3.704-6.581-6.691-10.701-8.956-12.359
				c-1.57-1.221-3.859-1.833-6.868-1.833h-5.034v22.563H1674.683z M1683.25,232.026h10.396c4.973,0,8.359-0.74,10.17-2.222
				c1.811-1.483,2.715-3.446,2.715-5.887c0-1.57-0.438-2.975-1.31-4.218c-0.874-1.242-2.081-2.169-3.628-2.781
				c-1.55-0.61-4.417-0.913-8.6-0.913h-9.744V232.026z"/>
		</g>
		<path fill="#5BA6D5" d="M2457.391,338.896c0-64.575-67.662-120.79-167.559-149.955l14.907-64.628
			c21.154-10.949,35.621-33.021,35.621-58.484c0-36.355-29.476-65.829-65.83-65.829c-36.356,0-65.829,29.473-65.829,65.829
			c0,13.877,4.303,26.744,11.635,37.36l-19.377,68.237c-21.793-2.443-44.393-3.74-67.566-3.74c-178.939,0-324,76.652-324,171.21
			c0,17.773,5.129,34.914,14.643,51.034l120.813,274.049c0,0,0.068,0.098,0.196,0.273c-30.412,21.686-48.421,48.594-48.421,77.748
			c0,71.814,109.277,130.032,244.082,130.032c106.272,0,196.667-36.187,230.174-86.691h-39.521
			c-31.625,39.431-105.079,67.063-190.652,67.063c-114.456,0-207.241-49.431-207.241-110.404c0-20.992,11.003-40.613,30.095-57.325
			c26.996,25.774,83.476,66.521,171.188,67.077c0,0,114.183,2.032,184.077-66.235c0,0-33.728-74.363-184.348-74.632
			c0,0-90.362-0.511-161.954,36.894c-1.766,0.896-3.508,1.798-5.223,2.72l-69.265-193.946
			c59.058,32.974,142.658,53.552,235.358,53.552C2312.332,510.105,2457.391,433.454,2457.391,338.896z M2283.318,217.203
			c75.166,25.91,124.857,70.732,124.857,121.694c0,63.492-77.125,117.456-184.558,137.185L2283.318,217.203z M1990.105,666.167
			c14.866-7.112,46.229-20.618,85.177-28.945c15.896-2.816,32.637-6.005,49.981-6.687v-0.074
			c52.726-2.768,111.275,8.861,159.832,55.465c0,0-151.142,108.984-303.709-14.523
			C1984.189,669.607,1987.096,667.861,1990.105,666.167z M1858.608,338.896c0-80.193,123.026-145.203,274.784-145.203
			c20.697,0,40.854,1.216,60.249,3.511l-81.355,286.474C1970.389,477.983,1858.608,415.337,1858.608,338.896z"/>
		<g>
			<path d="M14.033,816.916v-99.403h15.828l61.244,78.044v-78.044h14.793v99.403H90.073l-61.247-78.113v78.113H14.033z"/>
			<path d="M119.023,816.916l44.779-99.403h16.623l47.724,99.403h-17.577L196.97,786.81h-48.758l-12.803,30.105H119.023z
				 M152.668,776.097h39.528L180.03,748.57c-3.714-8.364-6.471-15.234-8.272-20.615c-1.486,6.373-3.581,12.703-6.284,18.986
				L152.668,776.097z"/>
			<path d="M258.056,816.916v-87.673h-38.417v-11.73h92.423v11.73h-38.576v87.673H258.056z"/>
			<path d="M330.514,816.916v-99.403h15.432v99.403H330.514z"/>
			<path d="M368.453,768.502c0-16.5,5.195-29.417,15.591-38.751c10.39-9.334,23.808-14.002,40.246-14.002
				c10.763,0,20.466,2.193,29.11,6.578c8.642,4.386,15.23,10.499,19.764,18.342c4.534,7.844,6.803,16.736,6.803,26.681
				c0,10.081-2.387,19.099-7.16,27.054c-4.771,7.957-11.532,13.98-20.28,18.071c-8.752,4.091-18.189,6.135-28.317,6.135
				c-10.978,0-20.786-2.259-29.426-6.779c-8.646-4.519-15.193-10.688-19.649-18.511C370.681,785.5,368.453,777.227,368.453,768.502z
				 M384.359,768.705c0,11.982,3.779,21.418,11.335,28.313c7.558,6.894,17.033,10.338,28.435,10.338
				c11.613,0,21.17-3.479,28.675-10.439c7.503-6.965,11.255-16.84,11.255-29.635c0-8.09-1.605-15.153-4.811-21.189
				c-3.211-6.033-7.904-10.711-14.08-14.033c-6.178-3.323-13.111-4.982-20.801-4.982c-10.924,0-20.32,3.194-28.195,9.591
				C388.3,743.067,384.359,753.746,384.359,768.705z"/>
			<path d="M499.69,816.916v-99.403h15.829l61.244,78.044v-78.044h14.793v99.403h-15.827l-61.244-78.113v78.113H499.69z"/>
			<path d="M604.682,816.916l44.78-99.403h16.622l47.723,99.403h-17.575l-13.604-30.105h-48.757l-12.803,30.105H604.682z
				 M638.326,776.097h39.529l-12.169-27.527c-3.712-8.364-6.471-15.234-8.271-20.615c-1.485,6.373-3.579,12.703-6.282,18.986
				L638.326,776.097z"/>
			<path d="M725.499,816.916v-99.403h15.43v87.674h57.427v11.729H725.499z"/>
			<path d="M939.137,782.062l15.431,3.324c-3.231,10.806-9.054,19.044-17.461,24.717c-8.401,5.672-18.676,8.507-30.819,8.507
				c-12.568,0-22.786-2.179-30.663-6.542c-7.871-4.362-13.866-10.68-17.975-18.952c-4.107-8.271-6.163-17.154-6.163-26.649
				c0-10.349,2.319-19.378,6.961-27.087c4.639-7.706,11.237-13.562,19.804-17.56c8.563-4.004,17.986-6,28.275-6
				c11.664,0,21.478,2.531,29.43,7.591c7.953,5.065,13.492,12.184,16.623,21.36l-15.19,3.049
				c-2.708-7.23-6.631-12.496-11.773-15.799c-5.142-3.297-11.612-4.945-19.406-4.945c-8.961,0-16.454,1.83-22.473,5.492
				c-6.016,3.658-10.243,8.574-12.684,14.744c-2.441,6.171-3.658,12.533-3.658,19.09c0,8.452,1.445,15.832,4.333,22.137
				c2.891,6.307,7.385,11.021,13.483,14.14c6.098,3.118,12.699,4.677,19.805,4.677c8.642,0,15.961-2.124,21.951-6.374
				C932.957,796.732,937.015,790.427,939.137,782.062z"/>
			<path d="M968.885,768.502c0-16.5,5.195-29.417,15.589-38.751c10.393-9.334,23.809-14.002,40.247-14.002
				c10.765,0,20.465,2.193,29.111,6.578c8.643,4.386,15.229,10.499,19.763,18.342c4.533,7.844,6.801,16.736,6.801,26.681
				c0,10.081-2.386,19.099-7.158,27.054c-4.771,7.957-11.531,13.98-20.282,18.071c-8.748,4.091-18.188,6.135-28.313,6.135
				c-10.979,0-20.788-2.259-29.431-6.779c-8.646-4.519-15.192-10.688-19.646-18.511C971.11,785.5,968.885,777.227,968.885,768.502z
				 M984.793,768.705c0,11.982,3.775,21.418,11.331,28.313c7.56,6.894,17.034,10.338,28.436,10.338
				c11.612,0,21.172-3.479,28.674-10.439c7.503-6.965,11.259-16.84,11.259-29.635c0-8.09-1.607-15.153-4.814-21.189
				c-3.21-6.033-7.903-10.711-14.078-14.033c-6.18-3.323-13.113-4.982-20.801-4.982c-10.924,0-20.32,3.194-28.194,9.591
				C988.729,743.067,984.793,753.746,984.793,768.705z"/>
			<path d="M1099.805,816.916v-99.403h23.225l27.602,70.384c2.543,6.554,4.4,11.458,5.565,14.715
				c1.325-3.619,3.392-8.928,6.206-15.938l27.918-69.161h20.758v99.403h-14.876v-83.197l-33.882,83.197h-13.919l-33.724-84.621
				v84.621H1099.805z"/>
			<path d="M1235.493,816.916v-99.403h23.226l27.602,70.384c2.545,6.554,4.401,11.458,5.567,14.715
				c1.325-3.619,3.394-8.928,6.204-15.938l27.919-69.161h20.757v99.403h-14.87v-83.197l-33.885,83.197h-13.92l-33.727-84.621v84.621
				H1235.493z"/>
			<path d="M1448.18,717.512h15.43v57.434c0,9.99-1.326,17.922-3.977,23.8c-2.652,5.875-7.438,10.654-14.357,14.339
				c-6.921,3.685-16.003,5.525-27.241,5.525c-10.923,0-19.858-1.604-26.805-4.813c-6.945-3.21-11.902-7.853-14.874-13.932
				c-2.969-6.08-4.455-14.389-4.455-24.919v-57.434h15.431v57.363c0,8.636,0.944,14.997,2.825,19.089
				c1.88,4.09,5.116,7.244,9.705,9.457c4.582,2.217,10.192,3.326,16.819,3.326c11.349,0,19.435-2.195,24.259-6.58
				s7.24-12.816,7.24-25.292V717.512z"/>
			<path d="M1489.141,816.916v-99.403h15.828l61.244,78.044v-78.044h14.794v99.403h-15.828l-61.241-78.113v78.113H1489.141z"/>
			<path d="M1609.562,816.916v-99.403h15.43v99.403H1609.562z"/>
			<path d="M1681.863,816.916v-87.673h-38.417v-11.73h92.423v11.73h-38.576v87.673H1681.863z"/>
			<path d="M1784.545,816.916V774.81l-44.938-57.298h18.767l22.989,29.972c4.24,5.604,8.194,11.209,11.852,16.816
				c3.496-5.199,7.742-11.054,12.725-17.563l22.588-29.225h17.979l-46.529,57.298v42.105H1784.545z"/>
		</g>
		<g>
			<path d="M14.033,989.634V893.04h42.744c7.521,0,13.267,0.305,17.234,0.92c5.565,0.792,10.229,2.298,13.991,4.513
				c3.759,2.219,6.787,5.328,9.08,9.324c2.294,3.998,3.438,8.391,3.438,13.18c0,8.215-3.066,15.166-9.197,20.854
				c-6.132,5.688-17.211,8.533-33.234,8.533H29.026v39.271H14.033z M29.026,938.963h29.296c9.685,0,16.563-1.536,20.637-4.611
				c4.07-3.074,6.105-7.403,6.105-12.981c0-4.041-1.197-7.5-3.594-10.377s-5.553-4.778-9.469-5.702
				c-2.525-0.568-7.188-0.855-13.989-0.855H29.026V938.963z"/>
			<path d="M120.078,989.634V893.04h14.994v39.665h58.896V893.04h14.994v96.595h-14.994v-45.531h-58.896v45.531H120.078z"/>
			<path d="M221.484,989.634l43.514-96.595h16.154l46.375,96.595h-17.082l-13.217-29.254H249.85l-12.443,29.254H221.484z
				 M254.179,949.968h38.413l-11.825-26.754c-3.608-8.124-6.286-14.804-8.038-20.029c-1.442,6.195-3.478,12.344-6.107,18.447
				L254.179,949.968z"/>
			<path d="M339.74,989.634V893.04h50.238c10.098,0,17.776,0.868,23.032,2.602c5.255,1.735,9.454,4.801,12.599,9.192
				c3.143,4.393,4.715,9.246,4.715,14.562c0,6.853-2.604,12.628-7.806,17.326c-5.205,4.703-13.243,7.69-24.116,8.964
				c3.969,1.625,6.982,3.23,9.044,4.81c4.378,3.425,8.528,7.709,12.443,12.849l19.71,26.291H420.74l-14.994-20.099
				c-4.381-5.798-7.987-10.233-10.821-13.309c-2.833-3.075-5.372-5.228-7.612-6.457c-2.242-1.23-4.522-2.087-6.842-2.572
				c-1.699-0.304-4.481-0.459-8.348-0.459h-17.391v42.896H339.74z M354.732,935.667h32.232c6.853,0,12.211-0.602,16.076-1.812
				c3.865-1.208,6.801-3.142,8.811-5.798c2.011-2.657,3.014-5.545,3.014-8.663c0-4.571-1.945-8.325-5.835-11.268
				c-3.892-2.944-10.034-4.417-18.434-4.417h-35.864V935.667z"/>
			<path d="M453.358,989.634V893.04h22.567l26.822,68.394c2.473,6.368,4.275,11.136,5.41,14.295
				c1.288-3.514,3.297-8.672,6.026-15.482l27.131-67.206h20.173v96.595h-14.452v-80.85l-32.927,80.85h-13.526l-32.771-82.232v82.232
				H453.358z"/>
			<path d="M573.237,989.634l43.514-96.595h16.154l46.373,96.595h-17.079l-13.218-29.254h-47.379l-12.443,29.254H573.237z
				 M605.932,949.968h38.413l-11.825-26.754c-3.609-8.124-6.289-14.804-8.038-20.029c-1.444,6.195-3.479,12.344-6.107,18.447
				L605.932,949.968z"/>
			<path d="M772.108,955.762l14.995,3.23c-3.146,10.5-8.8,18.507-16.967,24.02c-8.168,5.511-18.15,8.269-29.949,8.269
				c-12.213,0-22.145-2.119-29.797-6.359c-7.652-4.236-13.475-10.377-17.468-18.416c-3.994-8.039-5.99-16.67-5.99-25.893
				c0-10.061,2.253-18.834,6.763-26.324c4.509-7.49,10.925-13.18,19.245-17.066c8.321-3.887,17.479-5.832,27.479-5.832
				c11.335,0,20.868,2.461,28.598,7.381c7.728,4.919,13.112,11.838,16.154,20.754l-14.763,2.967
				c-2.629-7.029-6.444-12.146-11.44-15.355c-4.997-3.205-11.283-4.808-18.857-4.808c-8.71,0-15.987,1.778-21.837,5.337
				c-5.85,3.557-9.959,8.336-12.328,14.33c-2.371,5.998-3.555,12.182-3.555,18.549c0,8.216,1.402,15.387,4.211,21.512
				c2.81,6.129,7.177,10.709,13.103,13.739s12.339,4.548,19.246,4.548c8.397,0,15.509-2.064,21.331-6.193
				C766.105,970.021,770.046,963.894,772.108,955.762z"/>
			<path d="M808.125,989.634V893.04h14.992v96.595H808.125z"/>
			<path d="M844.452,958.598l14.144-1.054c0.67,4.832,2.229,8.796,4.677,11.893c2.447,3.096,6.248,5.602,11.401,7.514
				c5.152,1.91,10.949,2.865,17.39,2.865c5.718,0,10.771-0.725,15.149-2.174c4.378-1.451,7.637-3.439,9.779-5.963
				c2.135-2.526,3.205-5.283,3.205-8.271c0-3.027-1.031-5.676-3.092-7.938c-2.062-2.264-5.462-4.16-10.202-5.7
				c-3.042-1.01-9.767-2.581-20.171-4.713c-10.41-2.128-17.703-4.138-21.875-6.028c-5.41-2.416-9.443-5.411-12.096-8.992
				c-2.656-3.58-3.98-7.588-3.98-12.025c0-4.876,1.623-9.434,4.869-13.672c3.246-4.242,7.984-7.457,14.221-9.652
				c6.233-2.197,13.164-3.297,20.791-3.297c8.397,0,15.805,1.153,22.222,3.459c6.415,2.309,11.348,5.701,14.804,10.181
				c3.447,4.481,5.303,9.556,5.563,15.222l-14.378,0.921c-0.771-6.104-3.39-10.718-7.846-13.837
				c-4.455-3.119-11.039-4.678-19.747-4.678c-9.069,0-15.678,1.416-19.825,4.249c-4.148,2.837-6.222,6.251-6.222,10.245
				c0,3.473,1.468,6.328,4.406,8.568c2.884,2.24,10.422,4.535,22.608,6.883c12.185,2.352,20.544,4.405,25.079,6.161
				c6.599,2.593,11.465,5.878,14.608,9.853c3.143,3.976,4.716,8.556,4.716,13.738c0,5.138-1.728,9.981-5.181,14.527
				c-3.452,4.549-8.412,8.083-14.875,10.609c-6.471,2.525-13.748,3.789-21.835,3.789c-10.256,0-18.849-1.275-25.778-3.822
				c-6.932-2.547-12.367-6.38-16.308-11.498C846.729,970.843,844.657,965.056,844.452,958.598z"/>
			<path d="M983.963,989.634v-85.198h-37.332V893.04h89.812v11.396h-37.484v85.198H983.963z"/>
			<path d="M1046.725,958.598l14.143-1.054c0.67,4.832,2.23,8.796,4.68,11.893c2.441,3.096,6.245,5.602,11.399,7.514
				c5.151,1.91,10.947,2.865,17.39,2.865c5.719,0,10.77-0.725,15.148-2.174c4.378-1.451,7.639-3.439,9.778-5.963
				c2.138-2.526,3.206-5.283,3.206-8.271c0-3.027-1.032-5.676-3.092-7.938c-2.06-2.264-5.463-4.16-10.202-5.7
				c-3.04-1.01-9.763-2.581-20.171-4.713c-10.411-2.128-17.702-4.138-21.877-6.028c-5.41-2.416-9.441-5.411-12.096-8.992
				c-2.651-3.58-3.981-7.588-3.981-12.025c0-4.876,1.626-9.434,4.872-13.672c3.246-4.242,7.984-7.457,14.219-9.652
				c6.236-2.197,13.167-3.297,20.793-3.297c8.397,0,15.807,1.153,22.222,3.459c6.415,2.309,11.349,5.701,14.802,10.181
				c3.448,4.481,5.308,9.556,5.566,15.222l-14.378,0.921c-0.772-6.104-3.388-10.718-7.845-13.837s-11.04-4.678-19.748-4.678
				c-9.07,0-15.679,1.416-19.823,4.249c-4.148,2.837-6.225,6.251-6.225,10.245c0,3.473,1.471,6.328,4.407,8.568
				c2.886,2.24,10.421,4.535,22.608,6.883c12.184,2.352,20.543,4.405,25.079,6.161c6.596,2.593,11.465,5.878,14.609,9.853
				c3.142,3.976,4.713,8.556,4.713,13.738c0,5.138-1.726,9.981-5.178,14.527c-3.453,4.549-8.415,8.083-14.88,10.609
				c-6.468,2.525-13.744,3.789-21.832,3.789c-10.255,0-18.849-1.275-25.778-3.822s-12.366-6.38-16.309-11.498
				C1049.002,970.843,1046.93,965.056,1046.725,958.598z"/>
			<path d="M1180.205,989.634l43.516-96.595h16.154l46.375,96.595h-17.084l-13.216-29.254h-47.38l-12.443,29.254H1180.205z
				 M1212.901,949.968h38.413l-11.826-26.754c-3.607-8.124-6.287-14.804-8.038-20.029c-1.445,6.195-3.478,12.344-6.106,18.447
				L1212.901,949.968z"/>
			<path d="M1293.128,958.598l14.146-1.054c0.668,4.832,2.228,8.796,4.676,11.893c2.447,3.096,6.245,5.602,11.401,7.514
				c5.151,1.91,10.947,2.865,17.392,2.865c5.719,0,10.768-0.725,15.147-2.174c4.38-1.451,7.638-3.439,9.778-5.963
				c2.138-2.526,3.205-5.283,3.205-8.271c0-3.027-1.028-5.676-3.091-7.938c-2.062-2.264-5.463-4.16-10.202-5.7
				c-3.04-1.01-9.766-2.581-20.172-4.713c-10.409-2.128-17.701-4.138-21.877-6.028c-5.408-2.416-9.44-5.411-12.092-8.992
				c-2.656-3.58-3.981-7.588-3.981-12.025c0-4.876,1.622-9.434,4.87-13.672c3.244-4.242,7.985-7.457,14.222-9.652
				c6.233-2.197,13.165-3.297,20.788-3.297c8.401,0,15.807,1.153,22.225,3.459c6.414,2.309,11.347,5.701,14.8,10.181
				c3.451,4.481,5.306,9.556,5.565,15.222l-14.377,0.921c-0.772-6.104-3.39-10.718-7.846-13.837
				c-4.457-3.119-11.039-4.678-19.748-4.678c-9.068,0-15.677,1.416-19.826,4.249c-4.147,2.837-6.219,6.251-6.219,10.245
				c0,3.473,1.467,6.328,4.404,8.568c2.884,2.24,10.421,4.535,22.607,6.883c12.186,2.352,20.546,4.405,25.08,6.161
				c6.597,2.593,11.467,5.878,14.609,9.853c3.141,3.976,4.715,8.556,4.715,13.738c0,5.138-1.727,9.981-5.181,14.527
				c-3.449,4.549-8.411,8.083-14.876,10.609c-6.468,2.525-13.745,3.789-21.834,3.789c-10.257,0-18.85-1.275-25.778-3.822
				c-6.931-2.547-12.365-6.38-16.308-11.498C1295.41,970.843,1293.336,965.056,1293.128,958.598z"/>
			<path d="M1398.709,958.598l14.144-1.054c0.671,4.832,2.229,8.796,4.678,11.893c2.447,3.096,6.245,5.602,11.399,7.514
				c5.152,1.91,10.948,2.865,17.391,2.865c5.719,0,10.768-0.725,15.149-2.174c4.376-1.451,7.638-3.439,9.778-5.963
				c2.137-2.526,3.206-5.283,3.206-8.271c0-3.027-1.031-5.676-3.092-7.938c-2.062-2.264-5.464-4.16-10.202-5.7
				c-3.042-1.01-9.766-2.581-20.172-4.713c-10.412-2.128-17.701-4.138-21.876-6.028c-5.411-2.416-9.442-5.411-12.096-8.992
				c-2.657-3.58-3.98-7.588-3.98-12.025c0-4.876,1.623-9.434,4.872-13.672c3.244-4.242,7.983-7.457,14.219-9.652
				c6.234-2.197,13.164-3.297,20.791-3.297c8.396,0,15.807,1.153,22.224,3.459c6.413,2.309,11.347,5.701,14.801,10.181
				c3.454,4.481,5.306,9.556,5.564,15.222l-14.375,0.921c-0.774-6.104-3.391-10.718-7.847-13.837
				c-4.458-3.119-11.039-4.678-19.748-4.678c-9.069,0-15.677,1.416-19.824,4.249c-4.149,2.837-6.22,6.251-6.22,10.245
				c0,3.473,1.466,6.328,4.404,8.568c2.883,2.24,10.419,4.535,22.606,6.883c12.186,2.352,20.546,4.405,25.08,6.161
				c6.597,2.593,11.465,5.878,14.607,9.853c3.143,3.976,4.715,8.556,4.715,13.738c0,5.138-1.725,9.981-5.176,14.527
				c-3.453,4.549-8.414,8.083-14.88,10.609c-6.466,2.525-13.748,3.789-21.835,3.789c-10.255,0-18.848-1.275-25.777-3.822
				s-12.367-6.38-16.309-11.498C1400.988,970.843,1398.914,965.056,1398.709,958.598z"/>
			<path d="M1504.83,942.589c0-16.037,5.049-28.586,15.149-37.658c10.095-9.068,23.136-13.605,39.107-13.605
				c10.461,0,19.889,2.13,28.289,6.391c8.399,4.261,14.801,10.202,19.204,17.822c4.409,7.621,6.611,16.266,6.611,25.928
				c0,9.798-2.319,18.561-6.958,26.293c-4.636,7.729-11.204,13.582-19.706,17.559c-8.502,3.975-17.679,5.963-27.517,5.963
				c-10.667,0-20.2-2.197-28.598-6.592c-8.402-4.39-14.763-10.385-19.093-17.984C1506.992,959.103,1504.83,951.066,1504.83,942.589z
				 M1520.288,942.785c0,11.639,3.669,20.811,11.013,27.51c7.342,6.699,16.554,10.049,27.631,10.049
				c11.286,0,20.572-3.383,27.866-10.148c7.289-6.764,10.935-16.361,10.935-28.793c0-7.864-1.56-14.727-4.675-20.591
				c-3.12-5.862-7.679-10.412-13.683-13.639c-6-3.229-12.738-4.844-20.211-4.844c-10.614,0-19.748,3.108-27.399,9.323
				C1524.113,917.87,1520.288,928.248,1520.288,942.785z"/>
			<path d="M1713.362,955.762l14.994,3.23c-3.143,10.5-8.799,18.507-16.965,24.02c-8.169,5.511-18.151,8.269-29.95,8.269
				c-12.211,0-22.145-2.119-29.799-6.359c-7.65-4.236-13.473-10.377-17.465-18.416c-3.995-8.039-5.991-16.67-5.991-25.893
				c0-10.061,2.253-18.834,6.763-26.324c4.509-7.49,10.922-13.18,19.246-17.066c8.322-3.887,17.479-5.832,27.477-5.832
				c11.334,0,20.869,2.461,28.598,7.381c7.73,4.919,13.111,11.838,16.155,20.754l-14.765,2.967
				c-2.626-7.029-6.441-12.146-11.438-15.355c-5-3.205-11.284-4.808-18.857-4.808c-8.708,0-15.989,1.778-21.837,5.337
				c-5.85,3.557-9.959,8.336-12.326,14.33c-2.373,5.998-3.558,12.182-3.558,18.549c0,8.216,1.403,15.387,4.211,21.512
				c2.81,6.129,7.178,10.709,13.104,13.739c5.924,3.03,12.341,4.548,19.246,4.548c8.397,0,15.509-2.064,21.332-6.193
				C1707.357,970.021,1711.299,963.894,1713.362,955.762z"/>
			<path d="M1749.381,989.634V893.04h14.993v96.595H1749.381z"/>
			<path d="M1778.363,989.634l43.514-96.595h16.154l46.377,96.595h-17.084l-13.215-29.254h-47.379l-12.444,29.254H1778.363z
				 M1811.059,949.968h38.414l-11.828-26.754c-3.605-8.124-6.284-14.804-8.037-20.029c-1.442,6.195-3.48,12.344-6.105,18.447
				L1811.059,949.968z"/>
			<path d="M1913.469,989.634v-85.198h-37.332V893.04h89.814v11.396h-37.488v85.198H1913.469z"/>
			<path d="M1983.88,989.634V893.04h14.995v96.595H1983.88z"/>
			<path d="M2020.749,942.589c0-16.037,5.048-28.586,15.149-37.658c10.099-9.068,23.135-13.605,39.108-13.605
				c10.46,0,19.89,2.13,28.289,6.391s14.804,10.202,19.207,17.822c4.407,7.621,6.608,16.266,6.608,25.928
				c0,9.798-2.317,18.561-6.956,26.293c-4.637,7.729-11.209,13.582-19.708,17.559c-8.503,3.975-17.676,5.963-27.516,5.963
				c-10.667,0-20.2-2.197-28.599-6.592c-8.399-4.39-14.763-10.385-19.093-17.984
				C2022.913,959.103,2020.749,951.066,2020.749,942.589z M2036.208,942.785c0,11.639,3.671,20.811,11.012,27.51
				c7.345,6.699,16.556,10.049,27.635,10.049c11.284,0,20.57-3.383,27.863-10.148c7.29-6.764,10.935-16.361,10.935-28.793
				c0-7.864-1.559-14.727-4.675-20.591c-3.12-5.862-7.678-10.412-13.682-13.639c-6.001-3.229-12.741-4.844-20.21-4.844
				c-10.617,0-19.748,3.108-27.398,9.323C2040.034,917.87,2036.208,928.248,2036.208,942.785z"/>
			<path d="M2148.28,989.634V893.04h15.383l59.515,75.839V893.04h14.375v96.595h-15.383l-59.513-75.908v75.908H2148.28z"/>
		</g>
	</g>
</g>
</svg>
